<svg width="20" height="20" viewBox="0 0 20 20" fill="none" xmlns="http://www.w3.org/2000/svg">
<path d="M8.33398 10H11.6673" stroke="#727272" stroke-width="1.66667" stroke-linecap="round" stroke-linejoin="round"/>
<path d="M8.33398 6.66699H11.6673" stroke="#727272" stroke-width="1.66667" stroke-linecap="round" stroke-linejoin="round"/>
<path d="M11.6673 17.4997V14.9997C11.6673 14.5576 11.4917 14.1337 11.1792 13.8212C10.8666 13.5086 10.4427 13.333 10.0007 13.333C9.55862 13.333 9.1347 13.5086 8.82214 13.8212C8.50958 14.1337 8.33398 14.5576 8.33398 14.9997V17.4997" stroke="#727272" stroke-width="1.66667" stroke-linecap="round" stroke-linejoin="round"/>
<path d="M4.99935 8.33301H3.33268C2.89065 8.33301 2.46673 8.5086 2.15417 8.82116C1.84161 9.13372 1.66602 9.55765 1.66602 9.99967V15.833C1.66602 16.275 1.84161 16.699 2.15417 17.0115C2.46673 17.3241 2.89065 17.4997 3.33268 17.4997H16.666C17.108 17.4997 17.532 17.3241 17.8445 17.0115C18.1571 16.699 18.3327 16.275 18.3327 15.833V7.49967C18.3327 7.05765 18.1571 6.63372 17.8445 6.32116C17.532 6.0086 17.108 5.83301 16.666 5.83301H14.9993" stroke="#727272" stroke-width="1.66667" stroke-linecap="round" stroke-linejoin="round"/>
<path d="M5 17.5V4.16667C5 3.72464 5.17559 3.30072 5.48816 2.98816C5.80072 2.67559 6.22464 2.5 6.66667 2.5H13.3333C13.7754 2.5 14.1993 2.67559 14.5118 2.98816C14.8244 3.30072 15 3.72464 15 4.16667V17.5" stroke="#727272" stroke-width="1.66667" stroke-linecap="round" stroke-linejoin="round"/>
</svg>
