<svg width="31" height="31" viewBox="0 0 31 31" fill="none" xmlns="http://www.w3.org/2000/svg">
<path d="M24.6211 23.2661C24.7101 23.3551 24.7806 23.4607 24.8288 23.577C24.8769 23.6933 24.9017 23.8179 24.9017 23.9437C24.9017 24.0696 24.8769 24.1942 24.8288 24.3104C24.7806 24.4267 24.7101 24.5323 24.6211 24.6213C24.5321 24.7103 24.4264 24.7809 24.3102 24.829C24.1939 24.8772 24.0693 24.902 23.9435 24.902C23.8176 24.902 23.693 24.8772 23.5768 24.829C23.4605 24.7809 23.3549 24.7103 23.2659 24.6213L15.3239 16.6781L7.38195 24.6213C7.20224 24.801 6.9585 24.902 6.70436 24.902C6.45021 24.902 6.20647 24.801 6.02676 24.6213C5.84705 24.4416 5.74609 24.1979 5.74609 23.9437C5.74609 23.6896 5.84705 23.4458 6.02676 23.2661L13.9699 15.3242L6.02676 7.38219C5.84705 7.20248 5.74609 6.95875 5.74609 6.7046C5.74609 6.45045 5.84705 6.20671 6.02676 6.02701C6.20647 5.8473 6.45021 5.74634 6.70436 5.74634C6.9585 5.74634 7.20224 5.8473 7.38195 6.02701L15.3239 13.9702L23.2659 6.02701C23.4456 5.8473 23.6893 5.74634 23.9435 5.74634C24.1976 5.74634 24.4414 5.8473 24.6211 6.02701C24.8008 6.20671 24.9017 6.45045 24.9017 6.7046C24.9017 6.95875 24.8008 7.20248 24.6211 7.38219L16.6779 15.3242L24.6211 23.2661Z" fill="#6B6B6B"/>
</svg>
