<svg width="22" height="22" viewBox="0 0 22 22" fill="none" xmlns="http://www.w3.org/2000/svg">
<path d="M0 11C0 4.92487 4.92487 0 11 0C17.0751 0 22 4.92487 22 11C22 17.0751 17.0751 22 11 22C4.92487 22 0 17.0751 0 11Z" fill="#E8EFFF"/>
<g clip-path="url(#clip0_2453_3489)">
<path d="M6.4165 9.85416C6.41651 9.34413 6.57123 8.8461 6.86023 8.42584C7.14923 8.00559 7.55891 7.68288 8.03516 7.50035C8.51141 7.31781 9.03183 7.28404 9.52768 7.40348C10.0235 7.52292 10.4715 7.78996 10.8124 8.16933C10.8364 8.195 10.8654 8.21547 10.8977 8.22946C10.9299 8.24346 10.9647 8.25068 10.9998 8.25068C11.035 8.25068 11.0698 8.24346 11.102 8.22946C11.1343 8.21547 11.1633 8.195 11.1873 8.16933C11.5271 7.78749 11.9752 7.51821 12.4718 7.39732C12.9685 7.27642 13.4902 7.30966 13.9675 7.49259C14.4448 7.67553 14.8551 7.9995 15.1437 8.42137C15.4323 8.84324 15.5856 9.34301 15.5832 9.85416C15.5832 10.9037 14.8957 11.6875 14.2082 12.375L11.691 14.8101C11.6056 14.9082 11.5003 14.987 11.3821 15.0413C11.2639 15.0955 11.1355 15.124 11.0055 15.1248C10.8754 15.1257 10.7467 15.0988 10.6278 15.046C10.5089 14.9933 10.4026 14.9158 10.316 14.8188L7.7915 12.375C7.104 11.6875 6.4165 10.9083 6.4165 9.85416Z" stroke="#155DFC" stroke-width="0.916667" stroke-linecap="round" stroke-linejoin="round"/>
</g>
<defs>
<clipPath id="clip0_2453_3489">
<rect width="11" height="11" fill="white" transform="translate(5.5 5.5)"/>
</clipPath>
</defs>
</svg>
