<svg width="56" height="56" viewBox="0 0 56 56" fill="none" xmlns="http://www.w3.org/2000/svg">
<rect width="56" height="56" rx="10" fill="#1D6ECC"/>
<path opacity="0.1" d="M28.5266 10.0526L14.1582 16.2105V26.4736C14.1582 34.6842 18.2635 40.8421 28.5266 47C38.7898 40.8421 42.895 34.6842 42.895 26.4736V16.2105L28.5266 10.0526Z" fill="white"/>
<path d="M28.5266 10.0526L14.1582 16.2105V26.4736C14.1582 34.6842 18.2635 40.8421 28.5266 47C38.7898 40.8421 42.895 34.6842 42.895 26.4736V16.2105L28.5266 10.0526Z" stroke="white" stroke-width="1.64211" stroke-linejoin="round"/>
<path d="M19.5791 28.78L21.5366 25.8437H35.2393L37.1968 28.78V32.6951H19.5791V28.78Z" fill="#210EB1"/>
<path d="M23.4941 25.8439L24.4729 22.9076H32.303L33.2818 25.8439H23.4941Z" fill="#210EB1"/>
<path d="M23.4937 34.6524C24.5748 34.6524 25.4512 33.776 25.4512 32.6949C25.4512 31.6137 24.5748 30.7373 23.4937 30.7373C22.4125 30.7373 21.5361 31.6137 21.5361 32.6949C21.5361 33.776 22.4125 34.6524 23.4937 34.6524Z" fill="white"/>
<path d="M23.4944 33.6737C24.0349 33.6737 24.4731 33.2355 24.4731 32.695C24.4731 32.1544 24.0349 31.7162 23.4944 31.7162C22.9538 31.7162 22.5156 32.1544 22.5156 32.695C22.5156 33.2355 22.9538 33.6737 23.4944 33.6737Z" fill="white"/>
<path d="M33.2817 34.6524C34.3629 34.6524 35.2393 33.776 35.2393 32.6949C35.2393 31.6137 34.3629 30.7373 33.2817 30.7373C32.2006 30.7373 31.3242 31.6137 31.3242 32.6949C31.3242 33.776 32.2006 34.6524 33.2817 34.6524Z" fill="white"/>
<path d="M33.2815 33.6737C33.8221 33.6737 34.2603 33.2355 34.2603 32.695C34.2603 32.1544 33.8221 31.7162 33.2815 31.7162C32.7409 31.7162 32.3027 32.1544 32.3027 32.695C32.3027 33.2355 32.7409 33.6737 33.2815 33.6737Z" fill="white"/>
<path d="M26.8584 23.2134L28.3877 24.7427L31.4463 21.6841" stroke="white" stroke-width="1.52931" stroke-linecap="round" stroke-linejoin="round"/>
</svg>
