<svg width="40" height="40" viewBox="0 0 40 40" fill="none" xmlns="http://www.w3.org/2000/svg">
<path d="M0 10C0 4.47715 4.47715 0 10 0H30C35.5228 0 40 4.47715 40 10V30C40 35.5228 35.5228 40 30 40H10C4.47715 40 0 35.5228 0 30V10Z" fill="#F0FDF4"/>
<path d="M28.3332 15.8333L20.8407 20.6058C20.5864 20.7534 20.2976 20.8312 20.0036 20.8312C19.7096 20.8312 19.4208 20.7534 19.1665 20.6058L11.6665 15.8333" stroke="#00A63E" stroke-width="1.66667" stroke-linecap="round" stroke-linejoin="round"/>
<path d="M26.6665 13.3333H13.3332C12.4127 13.3333 11.6665 14.0794 11.6665 14.9999V24.9999C11.6665 25.9204 12.4127 26.6666 13.3332 26.6666H26.6665C27.587 26.6666 28.3332 25.9204 28.3332 24.9999V14.9999C28.3332 14.0794 27.587 13.3333 26.6665 13.3333Z" stroke="#00A63E" stroke-width="1.66667" stroke-linecap="round" stroke-linejoin="round"/>
</svg>
