<svg width="16" height="16" viewBox="0 0 16 16" fill="none" xmlns="http://www.w3.org/2000/svg">
<path d="M9.33301 12.0003V4.00033C9.33301 3.6467 9.19253 3.30756 8.94248 3.05752C8.69243 2.80747 8.3533 2.66699 7.99967 2.66699H2.66634C2.31272 2.66699 1.97358 2.80747 1.72353 3.05752C1.47348 3.30756 1.33301 3.6467 1.33301 4.00033V11.3337C1.33301 11.5105 1.40325 11.68 1.52827 11.8051C1.65329 11.9301 1.82286 12.0003 1.99967 12.0003H3.33301" stroke="#727272" stroke-width="1.33333" stroke-linecap="round" stroke-linejoin="round"/>
<path d="M10 12H6" stroke="#727272" stroke-width="1.33333" stroke-linecap="round" stroke-linejoin="round"/>
<path d="M12.6663 11.9997H13.9997C14.1765 11.9997 14.3461 11.9294 14.4711 11.8044C14.5961 11.6794 14.6663 11.5098 14.6663 11.333V8.89967C14.6661 8.74838 14.6144 8.60168 14.5197 8.48367L12.1997 5.58367C12.1373 5.50559 12.0582 5.44253 11.9682 5.39914C11.8782 5.35575 11.7796 5.33315 11.6797 5.33301H9.33301" stroke="#727272" stroke-width="1.33333" stroke-linecap="round" stroke-linejoin="round"/>
<path d="M11.3333 13.3337C12.0697 13.3337 12.6667 12.7367 12.6667 12.0003C12.6667 11.2639 12.0697 10.667 11.3333 10.667C10.597 10.667 10 11.2639 10 12.0003C10 12.7367 10.597 13.3337 11.3333 13.3337Z" stroke="#727272" stroke-width="1.33333" stroke-linecap="round" stroke-linejoin="round"/>
<path d="M4.66634 13.3337C5.40272 13.3337 5.99967 12.7367 5.99967 12.0003C5.99967 11.2639 5.40272 10.667 4.66634 10.667C3.92996 10.667 3.33301 11.2639 3.33301 12.0003C3.33301 12.7367 3.92996 13.3337 4.66634 13.3337Z" stroke="#727272" stroke-width="1.33333" stroke-linecap="round" stroke-linejoin="round"/>
</svg>
