<svg width="40" height="40" viewBox="0 0 40 40" fill="none" xmlns="http://www.w3.org/2000/svg">
<path d="M0 10C0 4.47715 4.47715 0 10 0H30C35.5228 0 40 4.47715 40 10V30C40 35.5228 35.5228 40 30 40H10C4.47715 40 0 35.5228 0 30V10Z" fill="#FFF7ED"/>
<g clip-path="url(#clip0_2453_3612)">
<path d="M25 16.6667C25 19.6776 21.7758 22.8576 20.5058 23.9959C20.3606 24.1069 20.1828 24.167 20 24.167C19.8172 24.167 19.6394 24.1069 19.4942 23.9959C18.225 22.8576 15 19.6776 15 16.6667C15 15.3407 15.5268 14.0689 16.4645 13.1312C17.4021 12.1935 18.6739 11.6667 20 11.6667C21.3261 11.6667 22.5979 12.1935 23.5355 13.1312C24.4732 14.0689 25 15.3407 25 16.6667Z" stroke="#F54900" stroke-width="1.66667" stroke-linecap="round" stroke-linejoin="round"/>
<path d="M20.0002 18.3333C20.9206 18.3333 21.6668 17.5871 21.6668 16.6667C21.6668 15.7462 20.9206 15 20.0002 15C19.0797 15 18.3335 15.7462 18.3335 16.6667C18.3335 17.5871 19.0797 18.3333 20.0002 18.3333Z" stroke="#F54900" stroke-width="1.66667" stroke-linecap="round" stroke-linejoin="round"/>
<path d="M17.2616 21.6667H14.17C13.9952 21.6668 13.825 21.7218 13.6832 21.824C13.5414 21.9261 13.4354 22.0702 13.38 22.2359L11.71 27.2359C11.6681 27.3612 11.6566 27.4946 11.6764 27.6252C11.6963 27.7557 11.7468 27.8797 11.824 27.9869C11.9011 28.0941 12.0027 28.1814 12.1202 28.2417C12.2377 28.3019 12.3679 28.3334 12.5 28.3334H27.5C27.6319 28.3333 27.762 28.3019 27.8795 28.2417C27.9969 28.1815 28.0984 28.0942 28.1755 27.9872C28.2526 27.8801 28.3032 27.7562 28.3231 27.6257C28.343 27.4953 28.3317 27.362 28.29 27.2367L26.6233 22.2367C26.568 22.0707 26.4619 21.9264 26.3199 21.824C26.178 21.7217 26.0074 21.6667 25.8325 21.6667H22.7391" stroke="#F54900" stroke-width="1.66667" stroke-linecap="round" stroke-linejoin="round"/>
</g>
<defs>
<clipPath id="clip0_2453_3612">
<rect width="20" height="20" fill="white" transform="translate(10 10)"/>
</clipPath>
</defs>
</svg>
