<svg width="50" height="50" viewBox="0 0 50 50" fill="none" xmlns="http://www.w3.org/2000/svg">
<path d="M45.3383 23.7119C44.8402 25.7389 43.9448 27.6468 42.7038 29.3252C41.4629 31.0035 39.9011 32.4188 38.1091 33.489C36.3186 34.5579 34.3336 35.2607 32.2694 35.5564C30.2051 35.8522 28.1027 35.7351 26.0841 35.2119C25.6272 35.087 25.1451 35.087 24.6882 35.2119C24.2406 35.314 23.8298 35.5375 23.5008 35.8577L14.6133 44.7952C14.2732 45.1194 13.8781 45.3804 13.4466 45.5661C13.005 45.7495 12.5309 45.8416 12.0528 45.8369C11.5815 45.8417 11.1141 45.7495 10.6799 45.5661C10.2461 45.3845 9.85037 45.1231 9.51325 44.7952L5.207 40.4827C4.87046 40.1527 4.60773 39.7551 4.43617 39.3161C4.07597 38.4276 4.07597 37.4337 4.43617 36.5452C4.60773 36.1062 4.87046 35.7086 5.207 35.3786L14.1174 26.4619C14.4446 26.1431 14.6756 25.7389 14.7841 25.2952C14.9091 24.8598 14.9091 24.3994 14.7841 23.9619C14.0701 21.2263 14.1027 18.3492 14.8784 15.6305C15.6541 12.9117 17.1445 10.4506 19.1945 8.50356C21.227 6.56725 23.7437 5.21429 26.4799 4.58689C29.232 3.92793 32.1121 4.03602 34.807 4.89939C35.0656 4.97472 35.3 5.11649 35.4868 5.31058C35.6736 5.50468 35.8062 5.74433 35.8715 6.00565C35.9369 6.26698 35.9326 6.54086 35.8591 6.80002C35.7857 7.05918 35.6456 7.29456 35.4528 7.48273L29.3737 13.5869C28.6374 14.3897 28.2222 15.4352 28.207 16.5244C28.1802 17.0017 28.3367 17.4712 28.6445 17.8369L32.2257 21.4411C32.4954 21.6379 32.8047 21.7734 33.1322 21.8382C33.4597 21.903 33.7973 21.8954 34.1216 21.8161C35.0048 21.6945 35.831 21.3098 36.4924 20.7119L42.5716 14.6077C42.7646 14.4216 43.0007 14.2862 43.2588 14.2135C43.5169 14.1408 43.789 14.1331 44.0508 14.1911C44.314 14.2556 44.5559 14.3874 44.7528 14.5737C44.9497 14.76 45.0947 14.9943 45.1737 15.2536C45.9954 18.0057 46.0509 20.9295 45.3383 23.7119Z" fill="#364153"/>
</svg>
